<?xml version="1.0" encoding="UTF-8"?>
<!DOCTYPE svg PUBLIC "-//W3C//DTD SVG 1.1//EN" "http://www.w3.org/Graphics/SVG/1.1/DTD/svg11.dtd">
<!-- Creator: CorelDRAW (Evaluation Version) -->
<svg xmlns="http://www.w3.org/2000/svg" xml:space="preserve" width="6.75642in" height="1.80209in" version="1.1" style="shape-rendering:geometricPrecision; text-rendering:geometricPrecision; image-rendering:optimizeQuality; fill-rule:evenodd; clip-rule:evenodd"
viewBox="0 0 3802.91 1014.32"
 xmlns:xlink="http://www.w3.org/1999/xlink"
 xmlns:xodm="http://www.corel.com/coreldraw/odm/2003">
 <defs>
  <style type="text/css">
   <![CDATA[
    .fil0 {fill:white;fill-rule:nonzero}
   ]]>
  </style>
 </defs>
 <g id="Layer_x0020_1">
  <metadata id="CorelCorpID_0Corel-Layer"/>
  <g id="_3078190916256">
   <path class="fil0" d="M602.81 471.63c-1.01,-112.04 91.76,-166.55 96.01,-169.09 -52.54,-76.58 -133.98,-87.05 -162.6,-87.88 -68.4,-7.2 -134.74,40.92 -169.58,40.92 -35.54,0 -89.19,-40.22 -147.02,-39.04 -74.41,1.15 -144.03,44.22 -182.21,111.1 -78.79,136.38 -20.03,336.79 55.46,447.02 37.76,54.02 81.89,114.27 139.65,112.15 56.51,-2.29 77.61,-35.98 145.8,-35.98 67.56,0 87.38,35.98 146.29,34.62 60.64,-0.94 98.82,-54.23 135.27,-108.7 43.64,-61.84 61.17,-122.82 61.86,-125.95 -1.39,-0.49 -117.74,-44.91 -118.92,-179.17l-0 0zm-111.27 -329.49c30.39,-38 51.18,-89.69 45.41,-142.15 -43.99,1.95 -99,30.42 -130.67,67.58 -28.03,32.75 -53.06,86.42 -46.6,136.9 49.41,3.69 100.14,-24.93 131.86,-62.33z"/>
   <path class="fil0" d="M1421.25 879.06l-78.97 0 -43.26 -135.89 -150.36 0 -41.21 135.89 -76.88 0 149 -462.63 92.01 0 149.66 462.63zm-135.27 -192.9l-39.12 -120.8c-4.14,-12.34 -11.93,-41.4 -23.33,-87.15l-1.39 0c-4.59,19.68 -11.93,48.74 -21.98,87.15l-38.46 120.8 124.28 0zm517.69 22c0,56.73 -15.4,101.58 -46.25,134.5 -27.61,29.31 -61.93,43.94 -102.86,43.94 -44.2,0 -75.98,-15.75 -95.28,-47.31l0 175.03 -74.14 0 0 -359.21c0,-35.63 -0.94,-72.17 -2.75,-109.64l65.2 0 4.14 52.88 1.39 -0c24.72,-39.84 62.24,-59.76 112.59,-59.76 39.36,0 72.22,15.54 98.51,46.65 26.25,31.18 39.43,72.13 39.43,122.92l0 0zm-75.53 2.71c0,-32.47 -7.3,-59.24 -21.98,-80.34 -16.03,-21.94 -37.55,-32.92 -64.54,-32.92 -18.29,0 -34.91,6.12 -49.76,18.18 -14.88,12.17 -24.62,28.05 -29.17,47.73 -2.03,7.35 -3.18,14.94 -3.43,22.57l0 55.66c0,24.23 7.44,44.71 22.32,61.46 14.88,16.69 34.22,25.06 58,25.06 27.92,0 49.66,-10.81 65.2,-32.26 15.58,-21.52 23.37,-49.89 23.37,-85.14l-0.01 -0.01zm459.31 -2.71c0,56.73 -15.4,101.58 -46.25,134.5 -27.64,29.31 -61.93,43.94 -102.89,43.94 -44.2,0 -75.98,-15.75 -95.28,-47.31l0 175.03 -74.13 0 0 -359.21c0,-35.63 -0.94,-72.17 -2.75,-109.64l65.2 0 4.14 52.88 1.39 -0c24.69,-39.84 62.21,-59.76 112.59,-59.76 39.33,0 72.19,15.54 98.54,46.65 26.22,31.18 39.43,72.13 39.43,122.92l0 0zm-75.56 2.71c0,-32.47 -7.34,-59.24 -22.01,-80.34 -16.03,-21.94 -37.49,-32.92 -64.47,-32.92 -18.29,0 -34.91,6.12 -49.83,18.18 -14.88,12.17 -24.58,28.05 -29.14,47.73 -2.26,9.18 -3.48,16.65 -3.48,22.56l0 55.66c0,24.23 7.48,44.71 22.29,61.46 14.88,16.65 34.22,25.06 58.07,25.06 27.96,0 49.69,-10.81 65.2,-32.26 15.58,-21.52 23.37,-49.89 23.37,-85.14l0 -0zm504.65 38.41c0,39.39 -13.77,71.4 -41.14,96.12 -30.11,26.98 -72.15,40.5 -126.05,40.5 -49.79,0 -89.71,-9.6 -119.82,-28.82l17.14 -61.77c32.51,19.26 68.22,28.85 107.1,28.85 27.96,0 49.69,-6.33 65.2,-18.88 15.54,-12.58 23.4,-29.41 23.4,-50.41 0,-18.81 -6.5,-34.55 -19.26,-47.38 -12.83,-12.79 -34.04,-24.72 -63.84,-35.67 -81.02,-30.21 -121.56,-74.39 -121.56,-132.52 0,-37.96 14.33,-69.04 42.91,-93.34 28.58,-24.26 66.48,-36.4 113.64,-36.4 42.11,0 77.19,7.33 105.05,21.97l-18.6 60.42c-26.22,-14.18 -55.81,-21.28 -88.91,-21.28 -26.15,0 -46.66,6.43 -61.34,19.22 -12.35,11.44 -18.6,25.38 -18.6,41.92 0,18.25 7.13,33.41 21.32,45.3 12.31,10.95 34.77,22.87 67.25,35.67 39.85,16.06 69.13,34.76 87.87,56.25 18.88,21.48 28.27,48.29 28.27,80.23l-0 0zm245.74 -148.2l-81.72 0 0 161.96c0,41.2 14.39,61.74 43.26,61.74 13.25,0 24.24,-1.11 32.93,-3.44l2.05 56.28c-14.6,5.46 -33.83,8.2 -57.65,8.2 -29.28,0 -52.16,-8.93 -68.68,-26.8 -16.45,-17.87 -24.72,-47.8 -24.72,-89.93l0 -168.15 -48.68 0 0 -55.62 48.68 0 0 -61.08 72.81 -21.97 0 83.05 81.72 0 0 55.76zm367.96 108.43c0,51.28 -14.67,93.37 -43.95,126.3 -30.63,33.89 -71.39,50.79 -122.19,50.79 -49.03,0 -88.01,-16.23 -117.08,-48.67 -29.07,-32.5 -43.6,-73.46 -43.6,-122.85 0,-51.69 15.02,-94.04 44.96,-126.96 30.01,-32.96 70.41,-49.43 121.22,-49.43 48.96,0 88.29,16.27 118.05,48.74 28.44,31.5 42.6,72.17 42.6,122.09l0 0zm-76.85 1.7c0,-30.56 -6.61,-56.77 -19.86,-78.7 -15.54,-26.49 -37.8,-39.73 -66.62,-39.73 -29.7,0 -52.47,13.24 -67.98,39.73 -13.28,21.94 -19.89,48.6 -19.89,80.09 0,30.59 6.61,56.87 19.89,78.74 16.03,26.49 38.39,39.73 67.35,39.73 28.34,0 50.56,-13.52 66.62,-40.4 13.63,-22.46 20.48,-48.84 20.48,-79.47l0 0zm317.92 -100.57c-7.55,-1.36 -15.24,-2.05 -22.92,-2.05 -0.14,0 -0.3,0 -0.44,0 -26.08,0 -46.25,9.8 -60.43,29.55 -12.31,17.38 -18.5,39.35 -18.5,65.88l0 175.03 -74.14 0 0 -228.53c0.01,-1.56 0.01,-3 0.01,-4.43 0,-33.48 -0.86,-67.54 -2.29,-100.73l64.69 0.14 2.71 63.82 2.05 0c7.86,-21.94 20.17,-39.63 37.07,-52.88 15.47,-11.57 34.27,-17.86 53.59,-17.87 6.85,0 13.04,0.49 18.53,1.36l0.07 70.71 -0.01 0.01zm331.55 85.83c0.01,0.92 0.03,1.94 0.03,2.9 0,10.3 -0.93,20.61 -2.74,30.73l-222.4 -0.02c0.84,32.96 11.61,58.19 32.27,75.58 18.74,15.51 42.98,23.29 72.74,23.29 32.93,0 62.97,-5.21 89.99,-15.75l11.61 51.42c-31.57,13.77 -68.85,20.62 -111.86,20.62 -51.74,0 -92.36,-15.23 -121.91,-45.61 -29.49,-30.42 -44.26,-71.3 -44.26,-122.51 0,-50.27 13.73,-92.16 41.24,-125.56 28.79,-35.67 67.7,-53.5 116.66,-53.5 48.09,0 84.5,17.83 109.22,53.5 19.58,28.26 29.42,63.3 29.42,104.92l-0 -0zm-70.69 -19.22c0.52,-22 -4.35,-40.95 -14.39,-56.98 -12.83,-20.65 -32.58,-30.94 -59.04,-30.94 -24.24,0 -43.99,10.05 -59.01,30.21 -12.35,16.03 -19.68,35.29 -21.94,57.64l154.39 0.07 -0 0z"/>
   <path class="fil0" d="M1127.29 252.87c-20.62,0 -38.46,-1.01 -53.31,-2.71l0 -223.67c20.38,-3.1 41.02,-4.73 61.62,-4.73 0.35,0 0.79,0 1.14,0 85.02,0 124.17,41.82 124.17,109.99 0,78.63 -46.25,121.11 -133.63,121.11l0.01 0zm12.45 -202.43c-11.47,0 -21.25,0.7 -29.35,2.36l0 170.03c4.38,0.7 12.8,1.01 24.62,1.01 55.71,0 87.42,-31.7 87.42,-91.08 0,-52.94 -28.69,-82.32 -82.69,-82.32l0 -0zm243.2 204.13c-47.92,0 -78.97,-35.77 -78.97,-84.34 0,-50.62 31.71,-86.7 81.68,-86.7 47.22,0 78.97,34.07 78.97,84.02 0,51.24 -32.72,87.01 -81.68,87.01zm1.39 -144.41c-26.32,0 -43.19,24.61 -43.19,59.03 0,33.76 17.21,58.37 42.84,58.37 25.63,0 42.84,-26.31 42.84,-59.06 0,-33.37 -16.86,-58.33 -42.49,-58.33l0 0zm353.53 -23.26l-51.29 163.94 -33.42 0 -21.25 -71.19c-5.23,-17.4 -9.65,-35.14 -13.15,-52.93l-0.73 -0.01c-2.68,17.87 -7.75,35.77 -13.14,52.94l-22.6 71.19 -33.76 0 -48.26 -163.94 37.45 0 18.57 77.94c4.38,18.56 8.07,36.08 11.13,52.63l0.7 0c2.68,-13.8 7.06,-31.04 13.49,-52.28l23.3 -78.25 29.7 0 22.29 76.58c5.39,18.56 9.77,36.78 13.18,53.99l0.98 -0c2.36,-16.86 6.09,-34.76 11.13,-53.99l19.92 -76.58 35.78 -0.04 0 0zm188.81 163.94l-36.44 0 0 -94.14c0,-28.99 -11.13,-43.52 -33.07,-43.52 -21.59,0 -36.44,18.56 -36.44,40.15l0 97.51 -36.44 0 0 -117.08c0,-14.5 -0.35,-30.04 -1.36,-46.89l32.06 0 1.7 25.31 1.01 0c9.81,-17.52 29.7,-28.65 51.98,-28.65 34.42,0 57.02,26.31 57.02,69.14l-0.04 98.17 0 0zm100.49 0l-36.48 0 0 -239.17 36.48 0 0 239.17zm132.87 3.72c-47.88,0 -78.97,-35.77 -78.97,-84.34 0,-50.62 31.71,-86.7 81.65,-86.7 47.26,0 78.97,34.07 78.97,84.02 0.04,51.24 -32.72,87.01 -81.65,87.01zm1.36 -144.41c-26.32,0 -43.19,24.61 -43.19,59.03 0,33.76 17.25,58.37 42.8,58.37 25.66,0 42.84,-26.31 42.84,-59.06 0.04,-33.37 -16.79,-58.33 -42.46,-58.33l0 0zm223.97 140.69l-2.64 -18.88 -0.97 0c-11.13,15.19 -27.37,22.6 -47.95,22.6 -29.38,0 -50.25,-20.58 -50.25,-48.25 0,-40.46 35.09,-61.39 95.83,-61.39l0 -3.02c0,-21.59 -11.44,-32.4 -34.04,-32.4 -16.17,0 -30.36,4.07 -42.84,12.17l-7.41 -23.95c15.16,-9.46 34.08,-14.18 56.3,-14.18 42.84,0 64.47,22.6 64.47,67.82l0 60.38c0,16.55 0.73,29.38 2.36,39.14l-32.86 -0.04 0 0zm-5.01 -81.66c-40.47,0 -60.78,9.8 -60.78,33.06 0,17.21 10.47,25.62 25,25.62 18.53,0 35.78,-14.15 35.78,-33.37l0 -25.31zm212.46 81.66l-1.7 -26.31 -1.01 0c-10.47,19.88 -28.06,30.04 -52.65,30.04 -39.54,0 -68.81,-34.76 -68.81,-83.68 0,-51.28 30.36,-87.39 71.8,-87.39 21.94,0 37.49,7.4 46.25,22.28l0.73 -0 0 -94.1 36.48 0 0 194.99c0,15.85 0.38,30.7 1.36,44.18l-32.44 0zm-5.39 -96.47c0,-22.94 -15.19,-42.52 -38.39,-42.52 -27.02,0 -43.54,23.95 -43.54,57.67 0,33.06 17.14,55.69 42.8,55.69 22.92,0 39.12,-19.92 39.12,-43.52l0 -27.32 0 0zm267.75 100.19c-47.88,0 -78.93,-35.77 -78.93,-84.34 0,-50.62 31.71,-86.7 81.65,-86.7 47.26,0 78.97,34.07 78.97,84.02 0.04,51.24 -32.69,87.01 -81.68,87.01zm1.36 -144.41c-26.29,0 -43.15,24.61 -43.15,59.03 0,33.76 17.21,58.37 42.8,58.37 25.66,0 42.84,-26.31 42.84,-59.06 0.07,-33.37 -16.79,-58.33 -42.49,-58.33l0 0zm276.3 140.69l-36.48 0 0 -94.14c0,-28.99 -11.13,-43.52 -33.07,-43.52 -21.59,0 -36.41,18.56 -36.41,40.15l0 97.51 -36.48 0 0 -117.08c0,-14.5 -0.35,-30.04 -1.36,-46.89l32.06 0 1.7 25.31 1.01 0c9.77,-17.52 29.7,-28.68 51.95,-28.68 34.43,0 57.06,26.31 57.06,69.14l0 98.21 0 0zm245.18 -136.62l-40.09 0 0 79.61c0,20.27 7.02,30.38 21.21,30.38 6.43,0 11.82,-0.7 16.17,-1.7l1.01 27.67c-7.06,2.71 -16.52,4.07 -28.27,4.07 -28.72,0 -45.9,-15.85 -45.9,-57.36l-0 -82.66 -23.92 0 0 -27.32 23.92 0 0 -30.04 35.78 -10.81 0 40.81 40.09 0 0 27.36zm192.92 136.62l-36.41 0 0 -93.44c0,-29.34 -11.09,-44.18 -33.07,-44.18 -18.88,0 -36.48,12.83 -36.48,38.8l0 98.83 -36.41 0 0 -239.17 36.41 0 0 98.48 0.73 0c11.47,-17.87 28.1,-26.66 49.31,-26.66 34.7,0 55.91,26.98 55.91,69.84l0 97.51zm197.65 -73.21l-109.36 0c0.7,31.04 21.25,48.56 51.67,48.56 16.17,0 31.05,-2.71 44.2,-7.75l5.67 25.31c-15.51,6.74 -33.76,10.12 -55.01,10.12 -51.29,0 -81.65,-32.4 -81.65,-82.63 0,-50.27 31.09,-88.05 77.54,-88.05 41.9,0 68.19,31.04 68.19,77.94 0.04,0.99 0.07,1.99 0.07,2.98 0,4.53 -0.44,9.08 -1.31,13.53l-0.01 -0zm-33.41 -25.97c0,-25.31 -12.76,-43.18 -36.06,-43.18 -20.93,0 -37.49,18.22 -39.85,43.18l75.91 0z"/>
  </g>
 </g>
</svg>
