<?xml version="1.0" encoding="UTF-8"?>
<!DOCTYPE svg PUBLIC "-//W3C//DTD SVG 1.1//EN" "http://www.w3.org/Graphics/SVG/1.1/DTD/svg11.dtd">
<!-- Creator: CorelDRAW (Evaluation Version) -->
<svg xmlns="http://www.w3.org/2000/svg" xml:space="preserve" width="7.14198in" height="1.67701in" version="1.1" style="shape-rendering:geometricPrecision; text-rendering:geometricPrecision; image-rendering:optimizeQuality; fill-rule:evenodd; clip-rule:evenodd"
viewBox="0 0 4270.93 1002.86"
 xmlns:xlink="http://www.w3.org/1999/xlink"
 xmlns:xodm="http://www.corel.com/coreldraw/odm/2003">
 <defs>
  <style type="text/css">
   <![CDATA[
    .str0 {stroke:white;stroke-width:4.98;stroke-miterlimit:2.61313}
    .fil0 {fill:white;fill-rule:nonzero}
    .fil5 {fill:black;fill-rule:nonzero;fill-opacity:0.200000}
    .fil6 {fill:white;fill-rule:nonzero;fill-opacity:0.200000}
    .fil4 {fill:url(#id0);fill-rule:nonzero}
    .fil1 {fill:url(#id1);fill-rule:nonzero}
    .fil2 {fill:url(#id2);fill-rule:nonzero}
    .fil3 {fill:url(#id3);fill-rule:nonzero}
   ]]>
  </style>
  <linearGradient id="id0" gradientUnits="userSpaceOnUse" x1="-110.74" y1="1651.74" x2="258.4" y2="2016.02">
   <stop offset="0" style="stop-opacity:1; stop-color:#32A071"/>
   <stop offset="0.0705882" style="stop-opacity:1; stop-color:#2DA771"/>
   <stop offset="0.470588" style="stop-opacity:1; stop-color:#15CF74"/>
   <stop offset="0.8" style="stop-opacity:1; stop-color:#06E775"/>
   <stop offset="1" style="stop-opacity:1; stop-color:#00F076"/>
  </linearGradient>
  <linearGradient id="id1" gradientUnits="userSpaceOnUse" x1="406.05" y1="1962.61" x2="-184.57" y2="2590.15">
   <stop offset="0" style="stop-opacity:1; stop-color:#00A0FF"/>
   <stop offset="0.0117647" style="stop-opacity:1; stop-color:#00A1FF"/>
   <stop offset="0.258824" style="stop-opacity:1; stop-color:#00BEFF"/>
   <stop offset="0.509804" style="stop-opacity:1; stop-color:#00D2FF"/>
   <stop offset="0.760784" style="stop-opacity:1; stop-color:#00DFFF"/>
   <stop offset="1" style="stop-opacity:1; stop-color:#00E3FF"/>
  </linearGradient>
  <linearGradient id="id2" gradientUnits="userSpaceOnUse" x1="836.6" y1="2405.58" x2="-19.81" y2="2405.58">
   <stop offset="0" style="stop-opacity:1; stop-color:#FFE000"/>
   <stop offset="0.411765" style="stop-opacity:1; stop-color:#FFBD00"/>
   <stop offset="0.780392" style="stop-opacity:1; stop-color:orange"/>
   <stop offset="1" style="stop-opacity:1; stop-color:#FF9C00"/>
  </linearGradient>
  <linearGradient id="id3" gradientUnits="userSpaceOnUse" x1="516.8" y1="2462.33" x2="-295.31" y2="3267.47">
   <stop offset="0" style="stop-opacity:1; stop-color:#FF3A44"/>
   <stop offset="1" style="stop-opacity:1; stop-color:#C31162"/>
  </linearGradient>
 </defs>
 <g id="Layer_x0020_1">
  <metadata id="CorelCorpID_0Corel-Layer"/>
  <path class="fil0 str0" d="M1380.58 124.31c0,29.53 -7.38,55.37 -25.84,73.83 -22.15,22.15 -47.99,33.22 -81.21,33.22 -33.22,0 -59.06,-11.07 -81.21,-33.22 -22.15,-22.15 -33.22,-47.99 -33.22,-81.21 0,-33.22 11.07,-59.06 33.22,-81.21 22.15,-22.15 47.99,-33.22 81.21,-33.22 14.77,0 29.53,3.69 44.3,11.07 14.77,7.38 25.84,14.77 33.22,25.84l-18.46 18.46c-14.77,-18.46 -33.22,-25.84 -59.06,-25.84 -22.15,0 -44.3,7.38 -59.06,25.84 -18.46,14.77 -25.84,36.91 -25.84,62.75 0,25.84 7.38,47.99 25.84,62.75 18.46,14.77 36.91,25.84 59.06,25.84 25.84,0 44.3,-7.38 62.75,-25.84 11.07,-11.07 18.46,-25.84 18.46,-44.3l-81.21 0 0 -29.53 107.05 0 0 14.77zm169.8 -92.29l-99.67 0 0 70.14 92.29 0 0 25.84 -92.29 0 0 70.14 99.67 0 0 29.53 -129.2 0 0 -221.48 129.2 0 0 25.84zm121.82 195.64l-29.53 0 0 -195.64 -62.75 0 0 -25.84 155.04 0 0 25.84 -62.75 0 0 195.64zm169.8 0l0 -221.48 29.53 0 0 221.48 -29.53 0zm155.04 0l-29.53 0 0 -195.64 -62.75 0 0 -25.84 151.35 0 0 25.84 -62.76 0 0 195.64 3.69 0zm350.68 -29.53c-22.15,22.15 -47.99,33.22 -81.21,33.22 -33.22,0 -59.06,-11.07 -81.21,-33.22 -22.15,-22.15 -33.22,-47.99 -33.22,-81.21 0,-33.22 11.07,-59.06 33.22,-81.21 22.15,-22.15 47.99,-33.22 81.21,-33.22 33.22,0 59.06,11.07 81.21,33.22 22.15,22.15 33.22,47.99 33.22,81.21 0,33.22 -11.07,59.06 -33.22,81.21zm-140.27 -18.46c14.77,14.77 36.91,25.84 59.06,25.84 22.15,0 44.3,-7.38 59.06,-25.84 14.77,-14.77 25.84,-36.91 25.84,-62.75 0,-25.84 -7.38,-47.99 -25.84,-62.75 -14.77,-14.77 -36.91,-25.84 -59.06,-25.84 -22.15,0 -44.3,7.38 -59.06,25.84 -14.77,14.77 -25.84,36.91 -25.84,62.75 0,25.84 7.38,47.99 25.84,62.75zm214.1 47.99l0 -221.48 33.22 0 107.05 173.49 0 -173.49 29.53 0 0 221.48 -29.53 0 -114.43 -180.88 0 180.88 -25.84 0z"/>
  <path class="fil0" d="M2144.69 552.51c-88.59,0 -158.73,66.44 -158.73,158.73 0,88.59 70.14,158.73 158.73,158.73 88.59,0 158.73,-66.44 158.73,-158.73 0,-95.97 -70.14,-158.73 -158.73,-158.73zm0 251.01c-47.99,0 -88.59,-40.61 -88.59,-95.97 0,-55.37 40.61,-95.97 88.59,-95.97 47.99,0 88.59,36.91 88.59,95.97 0,55.37 -40.61,95.97 -88.59,95.97zm-343.3 -251.01c-88.59,0 -158.73,66.44 -158.73,158.73 0,88.59 70.14,158.73 158.73,158.73 88.59,0 158.73,-66.44 158.73,-158.73 0,-95.97 -70.14,-158.73 -158.73,-158.73zm0 251.01c-47.99,0 -88.59,-40.61 -88.59,-95.97 0,-55.37 40.61,-95.97 88.59,-95.97 47.99,0 88.59,36.91 88.59,95.97 0,55.37 -40.61,95.97 -88.59,95.97zm-409.74 -203.02l0 66.44 158.73 0c-3.69,36.91 -18.46,66.44 -36.91,84.9 -22.15,22.15 -59.06,47.99 -121.82,47.99 -99.67,0 -173.49,-77.52 -173.49,-177.19 0,-99.67 77.52,-177.19 173.49,-177.19 51.68,0 92.29,22.15 121.82,47.99l47.99 -47.99c-40.61,-36.91 -92.29,-66.44 -166.11,-66.44 -132.89,0 -247.32,110.74 -247.32,243.63 0,132.89 114.43,243.63 247.32,243.63 73.83,0 125.51,-22.15 169.8,-70.14 44.3,-44.3 59.06,-107.05 59.06,-155.04 0,-14.77 0,-29.53 -3.69,-40.61l-228.86 0zm1675.89 51.68c-14.77,-36.91 -51.68,-99.67 -132.89,-99.67 -81.21,0 -147.66,62.75 -147.66,158.73 0,88.59 66.44,158.73 155.04,158.73 70.14,0 114.43,-44.3 129.2,-70.14l-51.68 -36.91c-18.46,25.84 -40.61,44.3 -77.52,44.3 -36.91,0 -59.06,-14.77 -77.52,-47.99l210.41 -88.59 -7.38 -18.46zm-214.1 51.68c0,-59.06 47.99,-92.29 81.21,-92.29 25.84,0 51.68,14.77 59.06,33.22l-140.27 59.06 0 0zm-173.49 151.35l70.14 0 0 -461.42 -70.14 0 0 461.42zm-110.74 -269.47c-18.46,-18.46 -47.99,-36.91 -84.9,-36.91 -77.52,0 -151.35,70.14 -151.35,158.73 0,88.59 70.14,155.04 151.35,155.04 36.91,0 66.44,-18.46 81.21,-36.91l3.69 0 0 22.15c0,59.06 -33.22,92.29 -84.9,92.29 -40.61,0 -70.14,-29.53 -77.52,-55.37l-59.06 25.84c18.46,40.61 62.75,92.29 140.27,92.29 81.21,0 147.66,-47.99 147.66,-162.42l0 -280.54 -66.44 0 0 25.84zm-81.21 217.79c-47.99,0 -88.59,-40.61 -88.59,-95.97 0,-55.37 40.61,-95.97 88.59,-95.97 47.99,0 84.9,40.61 84.9,95.97 0,55.37 -36.91,95.97 -84.9,95.97zm900.7 -409.74l-166.11 0 0 461.42 70.14 0 0 -173.49 95.97 0c77.52,0 151.35,-55.37 151.35,-143.96 0,-88.59 -73.83,-143.96 -151.35,-143.96l0 -0zm3.69 221.48l-99.67 0 0 -158.73 99.67 0c51.68,0 81.21,44.3 81.21,77.52 -3.69,40.61 -33.22,81.21 -81.21,81.21l0 -0zm424.51 -66.44c-51.68,0 -103.36,22.15 -121.82,70.14l62.75 25.84c14.77,-25.84 36.91,-33.22 62.75,-33.22 36.91,0 70.14,22.15 73.83,59.06l0 3.69c-11.07,-7.38 -40.61,-18.46 -70.14,-18.46 -66.44,0 -132.89,36.91 -132.89,103.36 0,62.75 55.37,103.36 114.43,103.36 47.99,0 70.14,-22.15 88.59,-44.3l3.69 0 0 36.91 66.45 0 0 -177.19c-7.38,-81.21 -70.14,-129.2 -147.66,-129.2zm-7.38 254.7c-22.15,0 -55.37,-11.07 -55.37,-40.61 0,-36.91 40.61,-47.99 73.83,-47.99 29.53,0 44.3,7.38 62.75,14.77 -7.38,44.3 -44.3,73.83 -81.21,73.83l0 0zm387.59 -243.63l-77.52 199.34 -3.69 0 -81.21 -199.34 -73.83 0 121.82 280.54 -70.14 155.04 70.14 0 188.26 -435.58 -73.83 0zm-620.15 295.31l70.14 0 0 -461.42 -70.14 0 0 461.42z"/>
  <path class="fil1" d="M14.77 24.64c-11.07,11.07 -14.77,29.53 -14.77,51.68l0 815.8c0,22.15 7.38,40.61 18.46,51.68l3.69 3.69 457.73 -457.73 0 -7.38 -465.12 -457.73z"/>
  <path class="fil2" d="M627.54 644.79l-151.35 -151.35 0 -11.07 151.35 -151.35 3.69 3.69 180.88 103.36c51.68,29.53 51.68,77.52 0,107.05l-184.57 99.67 0 0z"/>
  <path class="fil3" d="M631.23 641.1l-155.04 -155.04 -461.42 461.42c18.46,18.46 44.3,18.46 77.52,3.69l538.94 -310.08z"/>
  <path class="fil4" d="M631.23 331.03l-538.94 -306.39c-33.22,-18.46 -59.06,-14.77 -77.52,3.69l461.42 457.73 155.04 -155.04z"/>
  <path class="fil5" d="M627.54 637.41l-535.25 302.69c-29.53,18.46 -55.37,14.77 -73.83,0l-3.69 3.69 3.69 3.69c18.46,14.77 44.3,18.46 73.83,0l535.25 -310.08z"/>
  <path class="fil5" d="M14.77 940.1c-11.07,-11.07 -14.77,-29.53 -14.77,-51.68l0 3.69c0,22.15 7.38,40.61 18.46,51.68l0 -3.69 -3.69 0zm797.34 -406.05l-184.57 103.36 3.69 3.69 180.88 -103.36c25.84,-14.77 36.91,-33.22 36.91,-51.68 0,18.46 -14.77,33.22 -36.91,47.99z"/>
  <path class="fil6" d="M92.29 28.33l719.82 409.74c22.15,14.77 36.91,29.53 36.91,47.99 0,-18.46 -11.07,-36.91 -36.91,-51.68l-719.82 -409.74c-51.68,-29.53 -92.29,-7.38 -92.29,51.68l0 3.69c0,-55.37 40.61,-81.21 92.29,-51.68l-0 0z"/>
 </g>
</svg>
